When A Stranger Calls(2006) DVDRip Dual Audio [Hin-Eng] by imkhan -=[TDT]=@Mastitorrents

Check out MY latest Uploads:
 
http://thepiratebay.org/user/HDvideos/0/7

Stay updated with us....

Seed after downloading....

EnjoY with HDvideos..

Torrent From Mastitorrents

Team Mastitorrents

Say thanks if u like my posts

Give ur valuable feedbacks

Quality Uploads from HDvideos

General
Complete name :When A Stranger Calls 2006 DvDrip Dual Audio [Hin-Eng] by imkhan -=[TDT]=-\When A Stranger Calls 2006 DvDrip Dual Audio [Hin-Eng] by imkhan -=[TDT]=-.mkv
Format : Matroska
File size : 356 MiB
Duration : 1h 20mn[end credit cut]
Overall bit rate : 618 Kbps
Movie name : When A Stranger Calls 2006 DvDrip Dual Audio [Hin-Eng] by imkhan -=[TDT]=-
Encoded date : UTC 2011-05-04 16:00:52
Writing application : mkvmerge v4.7.0 ('Just Like You Imagined') built on Apr 21 2011 01:13:14
Writing library : libebml v1.2.0 + libmatroska v1.1.0

Video
ID : 1
Format : AVC
Format/Info : Advanced Video Codec
Format profile : High@L4.0
Format settings, CABAC : Yes
Format settings, ReFrames : 3 frames
Muxing mode : Container profile=Unknown@4.0
Codec ID : V_MPEG4/ISO/AVC
Duration : 1h 20mn
Bit rate : 413 Kbps
Width : 720 pixels
Height : 350 pixels
Display aspect ratio : 2.057
Frame rate : 25.000 fps
Original frame rate : 23.976 fps
Resolution : 24 bits
Colorimetry : 4:2:0
Scan type : Progressive
Bits/(Pixel*Frame) : 0.066
Stream size : 238 MiB (67%)
Title : imkhan
Language : Hindi

Audio #1
ID : 2
Format : MPEG Audio
Format version : Version 1
Format profile : Layer 3
Codec ID : A_MPEG/L3
Codec ID/Hint : MP3
Duration : 1h 20mn
Bit rate mode : Constant
Bit rate : 96.0 Kbps
Channel(s) : 2 channels
Sampling rate : 44.1 KHz
Resolution : 16 bits
Video delay : 2ms
Stream size : 55.3 MiB (16%)
Title : imkhan
Language : Hindi

Audio #2
ID : 3
Format : MPEG Audio
Format version : Version 1
Format profile : Layer 3
Codec ID : A_MPEG/L3
Codec ID/Hint : MP3
Duration : 1h 20mn
Bit rate mode : Constant
Bit rate : 96.0 Kbps
Channel(s) : 2 channels
Sampling rate : 44.1 KHz
Resolution : 16 bits
Stream size : 55.3 MiB (16%)
Title : imkhan